<?xml version="1.0" encoding="UTF-8" standalone="no"?><svg xmlns:xlink="http://www.w3.org/1999/xlink" xmlns="http://www.w3.org/2000/svg" id="svg-chart" font-family="Arial" height="220.0" width="944.0" style="font-size: 12pt;"><rect id="table-bg" x="0" y="0" width="944.0" height="220.0" style="fill: rgb(255, 255, 255);"/><g><rect x="0" y="4" width="936.0" height="28.0" style="fill: rgb(200,200,200);"/><text x="9" y="18.0" font-weight="bold" class="table-head" width="90.0">CPU</text><text x="101.0" y="18.0" font-weight="bold" class="table-head" width="360.0">IP Core</text><text x="463.0" y="18.0" font-weight="bold" class="table-head" width="300.0">Product/Model</text><text x="765.0" y="18.0" font-weight="bold" class="table-head" width="87.00000000000001">FreeBSD</text><text x="854.0" y="18.0" font-weight="bold" class="table-head" width="87.00000000000001">OpenBSD</text></g><line x1="0" y1="32.0" x2="936.0" y2="32.0" style="stroke:rgb(128,128,128);stroke-width:2"/><rect x="4" y="34.0" width="90.0" height="28.0" style="fill: rgb(255,255,255);"/><rect x="96.0" y="34.0" width="360.0" height="28.0" style="fill: rgb(255,255,255);"/><a xlink:href="https://github.com/ruyisdk/support-matrix/tree/main/VisionFive"><rect x="458.0" y="34.0" width="300.0" height="28.0" style="fill: rgb(255,255,255);"/></a><rect x="760.0" y="34.0" width="87.00000000000001" height="28.0" style="fill: rgb(220,220,220);"/><rect x="849.0" y="34.0" width="87.00000000000001" height="28.0" style="fill: rgb(203,255,203);"/><g><text x="9" y="48.0" class="table-data" height="28.0" width="90.0">JH7100</text><text x="101.0" y="48.0" class="table-data" height="28.0" width="360.0">SiFive U74 + SiFive E24</text><text x="463.0" y="48.0" class="table-data" height="28.0" width="300.0">VisionFive</text><text x="765.0" y="48.0" class="table-data" height="28.0" width="87.00000000000001">-</text><text x="854.0" y="48.0" class="table-data" height="28.0" width="87.00000000000001">Basic</text></g><line x1="0" y1="62.0" x2="936.0" y2="62.0" style="stroke:rgb(128,128,128);stroke-width:2"/><rect x="4" y="64.0" width="90.0" height="28.0" style="fill: rgb(255,255,255);"/><rect x="96.0" y="64.0" width="360.0" height="28.0" style="fill: rgb(255,255,255);"/><a xlink:href="https://github.com/ruyisdk/support-matrix/tree/main/VisionFive2"><rect x="458.0" y="64.0" width="300.0" height="28.0" style="fill: rgb(255,255,255);"/></a><rect x="760.0" y="64.0" width="87.00000000000001" height="28.0" style="fill: rgb(255,203,203);"/><rect x="849.0" y="64.0" width="87.00000000000001" height="28.0" style="fill: rgb(203,255,203);"/><g><text x="9" y="78.0" class="table-data" height="28.0" width="90.0">JH7110</text><text x="101.0" y="78.0" class="table-data" height="28.0" width="360.0">SiFive U74 + SiFive S7 + SiFive E24</text><text x="463.0" y="78.0" class="table-data" height="28.0" width="300.0">VisionFive 2</text><text x="765.0" y="78.0" class="table-data" height="28.0" width="87.00000000000001">WIP</text><text x="854.0" y="78.0" class="table-data" height="28.0" width="87.00000000000001">Basic</text></g><line x1="0" y1="92.0" x2="936.0" y2="92.0" style="stroke:rgb(128,128,128);stroke-width:2"/><rect x="4" y="94.0" width="90.0" height="28.0" style="fill: rgb(255,255,255);"/><rect x="96.0" y="94.0" width="360.0" height="28.0" style="fill: rgb(255,255,255);"/><a xlink:href="https://github.com/ruyisdk/support-matrix/tree/main/Unmatched"><rect x="458.0" y="94.0" width="300.0" height="28.0" style="fill: rgb(255,255,255);"/></a><rect x="760.0" y="94.0" width="87.00000000000001" height="28.0" style="fill: rgb(203,255,203);"/><rect x="849.0" y="94.0" width="87.00000000000001" height="28.0" style="fill: rgb(203,255,203);"/><g><text x="9" y="108.0" class="table-data" height="28.0" width="90.0">U740</text><text x="101.0" y="108.0" class="table-data" height="28.0" width="360.0">SiFive U74 + SiFive S7</text><text x="463.0" y="108.0" class="table-data" height="28.0" width="300.0">HiFive Unmatched</text><text x="765.0" y="108.0" class="table-data" height="28.0" width="87.00000000000001">Basic</text><text x="854.0" y="108.0" class="table-data" height="28.0" width="87.00000000000001">Basic</text></g><line x1="0" y1="122.0" x2="936.0" y2="122.0" style="stroke:rgb(128,128,128);stroke-width:2"/><rect x="4" y="124.0" width="90.0" height="28.0" style="fill: rgb(255,255,255);"/><rect x="96.0" y="124.0" width="360.0" height="28.0" style="fill: rgb(255,255,255);"/><a xlink:href="https://github.com/ruyisdk/support-matrix/tree/main/DongshanPI-STU"><rect x="458.0" y="124.0" width="300.0" height="28.0" style="fill: rgb(255,255,255);"/></a><rect x="760.0" y="124.0" width="87.00000000000001" height="28.0" style="fill: rgb(255,255,203);"/><rect x="849.0" y="124.0" width="87.00000000000001" height="28.0" style="fill: rgb(220,220,220);"/><g><text x="9" y="138.0" class="table-data" height="28.0" width="90.0">D1-H</text><text x="101.0" y="138.0" class="table-data" height="28.0" width="360.0">XuanTie C906</text><text x="463.0" y="138.0" class="table-data" height="28.0" width="300.0">DongshanPI-Nezha STU</text><text x="765.0" y="138.0" class="table-data" height="28.0" width="87.00000000000001">CFT</text><text x="854.0" y="138.0" class="table-data" height="28.0" width="87.00000000000001">-</text></g><line x1="0" y1="152.0" x2="936.0" y2="152.0" style="stroke:rgb(128,128,128);stroke-width:2"/><rect x="4" y="154.0" width="90.0" height="28.0" style="fill: rgb(255,255,255);"/><rect x="96.0" y="154.0" width="360.0" height="28.0" style="fill: rgb(255,255,255);"/><a xlink:href="https://github.com/ruyisdk/support-matrix/tree/main/mangopi_mq_pro"><rect x="458.0" y="154.0" width="300.0" height="28.0" style="fill: rgb(255,255,255);"/></a><rect x="760.0" y="154.0" width="87.00000000000001" height="28.0" style="fill: rgb(255,255,203);"/><rect x="849.0" y="154.0" width="87.00000000000001" height="28.0" style="fill: rgb(220,220,220);"/><g><text x="9" y="168.0" class="table-data" height="28.0" width="90.0">D1-H</text><text x="101.0" y="168.0" class="table-data" height="28.0" width="360.0">XuanTie C906</text><text x="463.0" y="168.0" class="table-data" height="28.0" width="300.0">MangoPi MQ Pro</text><text x="765.0" y="168.0" class="table-data" height="28.0" width="87.00000000000001">CFT</text><text x="854.0" y="168.0" class="table-data" height="28.0" width="87.00000000000001">-</text></g><line x1="0" y1="182.0" x2="936.0" y2="182.0" style="stroke:rgb(128,128,128);stroke-width:2"/><rect x="4" y="184.0" width="90.0" height="28.0" style="fill: rgb(255,255,255);"/><rect x="96.0" y="184.0" width="360.0" height="28.0" style="fill: rgb(255,255,255);"/><a xlink:href="https://github.com/ruyisdk/support-matrix/tree/main/Icicle"><rect x="458.0" y="184.0" width="300.0" height="28.0" style="fill: rgb(255,255,255);"/></a><rect x="760.0" y="184.0" width="87.00000000000001" height="28.0" style="fill: rgb(220,220,220);"/><rect x="849.0" y="184.0" width="87.00000000000001" height="28.0" style="fill: rgb(255,255,203);"/><g><text x="9" y="198.0" class="table-data" height="28.0" width="90.0">MPFS250T</text><text x="101.0" y="198.0" class="table-data" height="28.0" width="360.0">SiFive U54 + SiFive E51</text><text x="463.0" y="198.0" class="table-data" height="28.0" width="300.0">PolarFire FPGA SoC Icicle Kit</text><text x="765.0" y="198.0" class="table-data" height="28.0" width="87.00000000000001">-</text><text x="854.0" y="198.0" class="table-data" height="28.0" width="87.00000000000001">CFT</text></g><line x1="94.0" y1="0" x2="94.0" y2="212.0" style="stroke:rgb(128,128,128);stroke-width:2"/><line x1="456.0" y1="0" x2="456.0" y2="212.0" style="stroke:rgb(128,128,128);stroke-width:2"/><line x1="758.0" y1="0" x2="758.0" y2="212.0" style="stroke:rgb(128,128,128);stroke-width:2"/><line x1="847.0" y1="0" x2="847.0" y2="212.0" style="stroke:rgb(128,128,128);stroke-width:2"/><line x1="0" y1="2" x2="936.0" y2="2" style="stroke:rgb(0,0,0);stroke-width:4"/><line x1="0" y1="212.0" x2="936.0" y2="212.0" style="stroke:rgb(0,0,0);stroke-width:4"/><line x1="0" y1="0" x2="0" y2="212.0" style="stroke:rgb(0,0,0);stroke-width:4"/><line x1="936.0" y1="0" x2="936.0" y2="212.0" style="stroke:rgb(0,0,0);stroke-width:4"/></svg>